<?xml version="1.0" encoding="utf-8"?>
<!-- Generator: Adobe Illustrator 22.0.1, SVG Export Plug-In . SVG Version: 6.00 Build 0)  -->
<svg version="1.1" id="Layer_1" xmlns="http://www.w3.org/2000/svg" xmlns:xlink="http://www.w3.org/1999/xlink" x="0px" y="0px"
	 viewBox="0 0 33.9 32.5" style="enable-background:new 0 0 33.9 32.5;" xml:space="preserve">
<style type="text/css">
	.st0{fill:#FEE7AD;}
</style>
<g>
	<path class="st0" d="M26.3,32.4c-0.3,0-0.6-0.1-0.9-0.2L17,27.8l-8.5,4.5c-0.6,0.3-1.4,0.3-1.9-0.1C6,31.7,5.7,31,5.8,30.3l1.6-9.4
		l-6.9-6.7c-0.5-0.5-0.7-1.2-0.5-1.9c0.2-0.7,0.8-1.2,1.5-1.3l9.5-1.4L15.3,1c0.3-0.6,0.9-1,1.7-1c0,0,0,0,0,0c0.7,0,1.3,0.4,1.7,1
		c0,0,0,0,0,0l4.2,8.6l9.5,1.4c0.7,0.1,1.3,0.6,1.5,1.3c0.2,0.7,0,1.4-0.5,1.9l-6.9,6.7l1.6,9.4c0.1,0.7-0.2,1.4-0.7,1.8
		C27.1,32.3,26.7,32.4,26.3,32.4z M17,25.8c0.3,0,0.6,0.1,0.9,0.2l8.3,4.4l-1.6-9.2c-0.1-0.6,0.1-1.2,0.5-1.6l6.7-6.5l-9.3-1.3
		c-0.6-0.1-1.1-0.5-1.4-1L17,2.2l-4.1,8.4c-0.3,0.5-0.8,0.9-1.4,1l-9.3,1.3l6.7,6.5c0.4,0.4,0.6,1,0.5,1.6l-1.6,9.2l8.3-4.4
		C16.4,25.8,16.7,25.8,17,25.8z M22.9,9.7L22.9,9.7L22.9,9.7z M16.8,1.9C16.8,1.9,16.8,1.9,16.8,1.9L16.8,1.9L16.8,1.9z"/>
</g>
</svg>
